<svg id="Capa_1" data-name="Capa 1" xmlns="http://www.w3.org/2000/svg" viewBox="0 0 707.9 189.68"><defs><style>.cls-1{fill:#444444;}</style></defs><title>Mesa de trabajo 1</title><path class="cls-1" d="M79.42,57.85q-15.14.21-20.34,13.08a17.92,17.92,0,0,0-6.79-9.65,20.28,20.28,0,0,0-12-3.43q-13.8.21-19.21,10.63V58.36H7.78V113H21.07v-27A16.59,16.59,0,0,1,24.8,74.92,13.22,13.22,0,0,1,35,70.32a11.43,11.43,0,0,1,8.68,3.32q3.16,3.31,3.17,9.15V113H60.21v-27a16.59,16.59,0,0,1,3.73-11.14A13.11,13.11,0,0,1,74,70.32a11.63,11.63,0,0,1,8.74,3.32Q85.95,77,86,82.79V113H99.34V78.9q0-9.7-5.31-15.38T79.42,57.85Z"/><path class="cls-1" d="M153.5,67.15a20,20,0,0,0-7.66-6.9,23.28,23.28,0,0,0-10.73-2.4,26.07,26.07,0,0,0-13.54,3.48,23.83,23.83,0,0,0-9.15,9.76,30.88,30.88,0,0,0-3.27,14.46,31.74,31.74,0,0,0,3.27,14.66,24,24,0,0,0,9.15,9.91,26,26,0,0,0,13.64,3.53,23,23,0,0,0,10.68-2.4,20,20,0,0,0,7.61-6.9V113h13.29V58.36H153.5Zm0,20.64a16.36,16.36,0,0,1-4.8,10.68,14.71,14.71,0,0,1-10.63,4,14.47,14.47,0,0,1-11.14-4.65q-4.29-4.65-4.39-12a17.43,17.43,0,0,1,4.39-12,14.47,14.47,0,0,1,11.14-4.65,14.71,14.71,0,0,1,10.63,4,16.36,16.36,0,0,1,4.8,10.68Z"/><path class="cls-1" d="M212.05,83.25a75,75,0,0,0-9.4-3.43,40.25,40.25,0,0,1-7.92-2.91,4.29,4.29,0,0,1-2.5-3.93,3.91,3.91,0,0,1,2-3.63,10.58,10.58,0,0,1,5.37-1.18,26.55,26.55,0,0,1,7.82,1.33,39.54,39.54,0,0,1,8.22,3.68l4.8-9.61a33.28,33.28,0,0,0-9.35-4.29,38,38,0,0,0-10.67-1.53q-8.9,0-14.77,4.24T179.76,74.3a13.16,13.16,0,0,0,2.56,8.43,16.24,16.24,0,0,0,6,4.81,71,71,0,0,0,9,3.22,45.78,45.78,0,0,1,8.28,3.16,4.64,4.64,0,0,1,2.55,4.3,4.15,4.15,0,0,1-2.2,3.83,11.64,11.64,0,0,1-5.87,1.28,29.47,29.47,0,0,1-9.71-1.79,27,27,0,0,1-8.79-5l-4.59,9.3a29.1,29.1,0,0,0,10.21,5.67,39.11,39.11,0,0,0,12.37,2q9.3,0,15.43-4.29T221.15,97a13.39,13.39,0,0,0-2.71-8.74A17.58,17.58,0,0,0,212.05,83.25Z"/><path class="cls-1" d="M558.84,97.5q4.29-4.59,4.29-12t-4.29-12a14.4,14.4,0,0,0-11-4.6,14.63,14.63,0,0,0-11.24,4.6q-4.29,4.6-4.3,12t4.3,12a14.63,14.63,0,0,0,11.24,4.6A14.4,14.4,0,0,0,558.84,97.5Z"/><path class="cls-1" d="M677.83,6.54H264.51a22.58,22.58,0,0,0-22.58,22.59v93.35a22.58,22.58,0,0,0,22.58,22.58H548.74l9.78,35.23a4.5,4.5,0,0,0,4.07,3.28h.26a4.49,4.49,0,0,0,4.16-2.8l3.78-9.31,7.27,9.4a4.49,4.49,0,0,0,6.3.8l9.47-7.33a4.5,4.5,0,0,0,.8-6.3l-7.27-9.39,9.95-1.32A4.49,4.49,0,0,0,599,149l-6.78-3.93h85.65a22.58,22.58,0,0,0,22.58-22.58V29.13A22.58,22.58,0,0,0,677.83,6.54ZM304.3,110.38a32.44,32.44,0,0,1-14,2.86,29.16,29.16,0,0,1-14.36-3.48,24.48,24.48,0,0,1-9.76-9.75,29.46,29.46,0,0,1-3.47-14.46,29.59,29.59,0,0,1,3.52-14.62A24.76,24.76,0,0,1,276,61.12a29.46,29.46,0,0,1,14.46-3.47,32.7,32.7,0,0,1,13.34,2.6,24.08,24.08,0,0,1,9.55,7.41l-8.07,7.67a18.51,18.51,0,0,0-14.31-6,14,14,0,0,0-10.78,4.49q-4.14,4.5-4.14,11.65,0,7.36,4.14,11.86A14,14,0,0,0,291,101.79q9.81,0,14.72-6.43L314,102.2A24.2,24.2,0,0,1,304.3,110.38Zm34.95,3a14,14,0,0,1-10.63-4.44q-4.2-4.45-4.19-12.73V36.91h13.18V95.05a6.86,6.86,0,0,0,1.33,4.6,4.61,4.61,0,0,0,3.68,1.53A12.68,12.68,0,0,0,348,99.54l1.54,11.14A23,23,0,0,1,339.25,113.34Zm31.88-.61H357.84V58.06h13.29ZM369.8,48.15a7.67,7.67,0,0,1-10.83,0,7.84,7.84,0,0,1-2.15-5.62A8,8,0,0,1,359,36.8a7.64,7.64,0,0,1,10.83,0A8,8,0,0,1,372,42.53,7.84,7.84,0,0,1,369.8,48.15Zm54.36,62.23a32.41,32.41,0,0,1-14,2.86,29.16,29.16,0,0,1-14.36-3.48,24.46,24.46,0,0,1-9.75-9.75,29.36,29.36,0,0,1-3.48-14.46,29.6,29.6,0,0,1,3.53-14.62,24.76,24.76,0,0,1,9.81-9.81,29.46,29.46,0,0,1,14.46-3.47,32.69,32.69,0,0,1,13.33,2.6,24.19,24.19,0,0,1,9.56,7.41l-8.08,7.67a18.49,18.49,0,0,0-14.3-6,14,14,0,0,0-10.78,4.49Q396,78.29,396,85.44q0,7.36,4.14,11.86a14,14,0,0,0,10.78,4.49q9.81,0,14.71-6.43l8.28,6.84A24.14,24.14,0,0,1,424.16,110.38Zm29.28,1.17a6.68,6.68,0,0,1-5.06,2.1,6.5,6.5,0,0,1-5-2.15,7.54,7.54,0,0,1-2-5.31,7.22,7.22,0,0,1,2-5.22,6.65,6.65,0,0,1,5-2,6.78,6.78,0,0,1,5.06,2,7.18,7.18,0,0,1,2,5.22A7.44,7.44,0,0,1,453.44,111.55Zm51.35-1.17a32.44,32.44,0,0,1-14,2.86,29.13,29.13,0,0,1-14.36-3.48,24.48,24.48,0,0,1-9.76-9.75,29.35,29.35,0,0,1-3.47-14.46,29.59,29.59,0,0,1,3.52-14.62,24.76,24.76,0,0,1,9.81-9.81A29.46,29.46,0,0,1,491,57.65a32.73,32.73,0,0,1,13.34,2.6,24.15,24.15,0,0,1,9.55,7.41l-8.07,7.67a18.51,18.51,0,0,0-14.31-6,14,14,0,0,0-10.78,4.49q-4.14,4.5-4.14,11.65,0,7.36,4.14,11.86a14,14,0,0,0,10.78,4.49q9.81,0,14.72-6.43l8.27,6.84A24.11,24.11,0,0,1,504.79,110.38ZM522.52,100a28.85,28.85,0,0,1-3.63-14.61,28.39,28.39,0,0,1,3.63-14.46,25,25,0,0,1,10.16-9.76,31.86,31.86,0,0,1,15.13-3.47,31.32,31.32,0,0,1,15,3.47,25.2,25.2,0,0,1,10.11,9.76,28.39,28.39,0,0,1,3.63,14.46A28.85,28.85,0,0,1,572.89,100a25,25,0,0,1-10.11,9.81,31.21,31.21,0,0,1-15,3.48,31.75,31.75,0,0,1-15.13-3.48A24.82,24.82,0,0,1,522.52,100Zm74.2,52.92L579,155.23l12.05,15.56-9.47,7.33-12-15.56-6.72,16.53-9.45-34-5.7-20.53,35.51,20.53Zm82.91-40.14H666.24V82.48q0-5.82-3.22-9.15A11.61,11.61,0,0,0,654.29,70a13.13,13.13,0,0,0-10.07,4.6,16.59,16.59,0,0,0-3.73,11.14v27H627.1V82.48q0-5.82-3.16-9.15A11.47,11.47,0,0,0,615.25,70a13.25,13.25,0,0,0-10.17,4.6,16.59,16.59,0,0,0-3.73,11.14v27H588.07V58.06h13.28V68.17q5.42-10.43,19.21-10.62a20.32,20.32,0,0,1,12,3.42,18,18,0,0,1,6.8,9.66q5.21-12.88,20.33-13.08,9.3,0,14.61,5.67t5.32,15.38Z"/></svg>